<svg width="19" height="19" viewBox="0 0 19 19" fill="none" xmlns="http://www.w3.org/2000/svg">
<path d="M9.60609 7.57788V11.0289H14.3981C13.9521 13.2219 12.0851 14.4819 9.60609 14.4819C8.21847 14.4628 6.89414 13.8981 5.91963 12.9101C4.94511 11.9221 4.39875 10.5901 4.39875 9.20238C4.39875 7.81462 4.94511 6.48265 5.91963 5.49463C6.89414 4.50661 8.21847 3.94197 9.60609 3.92288C10.8063 3.92144 11.9696 4.33795 12.8961 5.10088L15.4961 2.50087C14.4113 1.54664 13.1112 0.869856 11.7074 0.528588C10.3035 0.187319 8.8378 0.191761 7.43603 0.541532C6.03426 0.891303 4.73829 1.57596 3.65932 2.53675C2.58035 3.49753 1.7506 4.70576 1.24128 6.05776C0.731962 7.40975 0.558276 8.86513 0.735129 10.299C0.911982 11.7329 1.43409 13.1025 2.25666 14.2902C3.07922 15.4779 4.17768 16.4483 5.45777 17.1181C6.73785 17.7879 8.16135 18.1372 9.60609 18.1359C14.0731 18.1359 18.1351 14.8869 18.1351 9.20187C18.1282 8.65452 18.0611 8.10957 17.9351 7.57687L9.60609 7.57788Z" fill="#1D1B19"/>
</svg>
