<svg width="19" height="19" viewBox="0 0 19 19" fill="none" xmlns="http://www.w3.org/2000/svg">
<path d="M18.618 5.59988C18.6079 4.8425 18.4661 4.09265 18.199 3.38388C17.9673 2.78603 17.6135 2.24308 17.1601 1.78971C16.7068 1.33634 16.1638 0.98253 15.566 0.750879C14.8663 0.488236 14.1271 0.34622 13.38 0.330879C12.418 0.287879 12.113 0.275879 9.67097 0.275879C7.22897 0.275879 6.91597 0.275879 5.96097 0.330879C5.21413 0.346333 4.47532 0.488347 3.77597 0.750879C3.17803 0.982368 2.63499 1.33612 2.1816 1.78951C1.72821 2.2429 1.37446 2.78594 1.14297 3.38388C0.8798 4.08301 0.738092 4.82199 0.723969 5.56888C0.680969 6.53188 0.667969 6.83688 0.667969 9.27888C0.667969 11.7209 0.667969 12.0329 0.723969 12.9889C0.738969 13.7369 0.879969 14.4749 1.14297 15.1759C1.37485 15.7736 1.72886 16.3165 2.1824 16.7697C2.63594 17.2228 3.17903 17.5765 3.77697 17.8079C4.4744 18.0811 5.21334 18.2333 5.96197 18.2579C6.92497 18.3009 7.22997 18.3139 9.67197 18.3139C12.114 18.3139 12.427 18.3139 13.382 18.2579C14.1291 18.2432 14.8683 18.1015 15.568 17.8389C16.1657 17.607 16.7085 17.2531 17.1618 16.7997C17.6151 16.3464 17.9691 15.8036 18.201 15.2059C18.464 14.5059 18.605 13.7679 18.62 13.0189C18.663 12.0569 18.676 11.7519 18.676 9.30888C18.674 6.86688 18.674 6.55688 18.618 5.59988ZM9.66497 13.8969C7.11097 13.8969 5.04197 11.8279 5.04197 9.27388C5.04197 6.71988 7.11097 4.65088 9.66497 4.65088C10.8911 4.65088 12.0669 5.13794 12.9339 6.00492C13.8009 6.87191 14.288 8.04778 14.288 9.27388C14.288 10.5 13.8009 11.6759 12.9339 12.5428C12.0669 13.4098 10.8911 13.8969 9.66497 13.8969ZM14.472 5.55788C14.3304 5.55801 14.1901 5.53022 14.0593 5.47609C13.9284 5.42196 13.8095 5.34256 13.7094 5.24243C13.6093 5.14231 13.5299 5.02342 13.4758 4.89257C13.4216 4.76172 13.3938 4.62148 13.394 4.47988C13.394 4.33838 13.4218 4.19827 13.476 4.06754C13.5301 3.93681 13.6095 3.81803 13.7096 3.71797C13.8096 3.61792 13.9284 3.53855 14.0591 3.4844C14.1899 3.43025 14.33 3.40238 14.4715 3.40238C14.613 3.40238 14.7531 3.43025 14.8838 3.4844C15.0145 3.53855 15.1333 3.61792 15.2334 3.71797C15.3334 3.81803 15.4128 3.93681 15.4669 4.06754C15.5211 4.19827 15.549 4.33838 15.549 4.47988C15.549 5.07588 15.067 5.55788 14.472 5.55788Z" fill="#1D1B19"/>
<path d="M9.66511 12.277C11.3236 12.277 12.6681 10.9325 12.6681 9.274C12.6681 7.61549 11.3236 6.271 9.66511 6.271C8.0066 6.271 6.66211 7.61549 6.66211 9.274C6.66211 10.9325 8.0066 12.277 9.66511 12.277Z" fill="#1D1B19"/>
</svg>
