<svg width="84" height="13" viewBox="0 0 84 13" fill="none" xmlns="http://www.w3.org/2000/svg">
<path d="M5.66074 1.37208C5.9129 0.596024 7.01081 0.596025 7.26297 1.37208L8.16391 4.1449C8.27668 4.49196 8.6001 4.72694 8.96503 4.72694H11.8805C12.6965 4.72694 13.0358 5.77112 12.3757 6.25075L10.017 7.96445C9.72173 8.17894 9.59819 8.55915 9.71096 8.90621L10.6119 11.679C10.8641 12.4551 9.97583 13.1004 9.31567 12.6208L6.95697 10.9071C6.66174 10.6926 6.26197 10.6926 5.96674 10.9071L3.60804 12.6208C2.94789 13.1004 2.05966 12.4551 2.31181 11.679L3.21276 8.90621C3.32552 8.55915 3.20199 8.17894 2.90676 7.96445L0.548059 6.25075C-0.112096 5.77112 0.227179 4.72694 1.04317 4.72694H3.95869C4.32361 4.72694 4.64703 4.49196 4.7598 4.1449L5.66074 1.37208Z" fill="#FFC107"/>
<path d="M23.3497 1.37213C23.6019 0.59607 24.6998 0.596071 24.9519 1.37213L25.8529 4.14494C25.9656 4.49201 26.2891 4.72699 26.654 4.72699H29.5695C30.3855 4.72699 30.7248 5.77117 30.0646 6.2508L27.7059 7.96449C27.4107 8.17899 27.2872 8.55919 27.3999 8.90626L28.3009 11.6791C28.553 12.4551 27.6648 13.1005 27.0046 12.6208L24.6459 10.9071C24.3507 10.6926 23.9509 10.6926 23.6557 10.9071L21.297 12.6208C20.6369 13.1005 19.7486 12.4551 20.0008 11.6791L20.9017 8.90626C21.0145 8.55919 20.891 8.17899 20.5957 7.96449L18.237 6.2508C17.5769 5.77117 17.9161 4.72699 18.7321 4.72699H21.6477C22.0126 4.72699 22.336 4.49201 22.4488 4.14494L23.3497 1.37213Z" fill="#FFC107"/>
<path d="M41.039 1.37213C41.2912 0.59607 42.3891 0.596071 42.6413 1.37213L43.5422 4.14494C43.655 4.49201 43.9784 4.72699 44.3433 4.72699H47.2588C48.0748 4.72699 48.4141 5.77117 47.7539 6.2508L45.3953 7.96449C45.1 8.17899 44.9765 8.55919 45.0893 8.90626L45.9902 11.6791C46.2424 12.4551 45.3541 13.1005 44.694 12.6208L42.3353 10.9071C42.04 10.6926 41.6403 10.6926 41.345 10.9071L38.9863 12.6208C38.3262 13.1005 37.438 12.4551 37.6901 11.6791L38.5911 8.90626C38.7038 8.55919 38.5803 8.17899 38.2851 7.96449L35.9264 6.2508C35.2662 5.77117 35.6055 4.72699 36.4215 4.72699H39.337C39.7019 4.72699 40.0253 4.49201 40.1381 4.14494L41.039 1.37213Z" fill="#FFC107"/>
<path d="M59.2039 1.52664C59.3064 1.21123 59.7526 1.21123 59.8551 1.52664L60.756 4.29945C60.9357 4.85253 61.4511 5.22699 62.0327 5.22699H64.9482C65.2798 5.22699 65.4177 5.65136 65.1494 5.84629L62.7907 7.55998C62.3202 7.9018 62.1234 8.50769 62.3031 9.06077L63.204 11.8336C63.3065 12.149 62.9455 12.4113 62.6772 12.2163L60.3185 10.5026C59.848 10.1608 59.2109 10.1608 58.7405 10.5026L56.3818 12.2163C56.1135 12.4113 55.7525 12.149 55.855 11.8336L56.7559 9.06077C56.9356 8.50769 56.7387 7.9018 56.2683 7.55998L53.9096 5.84629C53.6413 5.65136 53.7792 5.22699 54.1108 5.22699H57.0263C57.6079 5.22699 58.1233 4.85253 58.303 4.29945L59.2039 1.52664Z" stroke="#FFC107"/>
<path d="M76.8931 1.52664C76.9956 1.21123 77.4418 1.21123 77.5443 1.52664L78.4452 4.29945C78.6249 4.85253 79.1403 5.22699 79.7219 5.22699H82.6374C82.969 5.22699 83.1069 5.65136 82.8386 5.84629L80.4799 7.55998C80.0094 7.9018 79.8126 8.50769 79.9923 9.06077L80.8932 11.8336C80.9957 12.149 80.6347 12.4113 80.3664 12.2163L78.0077 10.5026C77.5372 10.1608 76.9002 10.1608 76.4297 10.5026L74.071 12.2163C73.8027 12.4113 73.4417 12.149 73.5442 11.8336L74.4451 9.06077C74.6248 8.50769 74.428 7.9018 73.9575 7.55998L71.5988 5.84629C71.3305 5.65136 71.4684 5.22699 71.8 5.22699H74.7155C75.2971 5.22699 75.8125 4.85253 75.9922 4.29945L76.8931 1.52664Z" stroke="#FFC107"/>
</svg>
