<svg width="25" height="21" viewBox="0 0 25 21" fill="none" xmlns="http://www.w3.org/2000/svg">
<path d="M24.668 2.65163C23.7854 3.04216 22.8249 3.32323 21.8356 3.43269C22.8627 2.80676 23.6319 1.8179 23.9988 0.65163C23.035 1.23976 21.9791 1.65217 20.878 1.87056C20.4178 1.36591 19.8613 0.963878 19.243 0.689522C18.6247 0.415166 17.9579 0.274365 17.2842 0.275891C14.5586 0.275891 12.3666 2.54216 12.3666 5.32323C12.3666 5.71376 12.4127 6.10429 12.4877 6.48003C8.40646 6.2611 4.76651 4.2611 2.34661 1.19897C1.90568 1.9715 1.67462 2.85111 1.67746 3.7463C1.67746 5.49778 2.54563 7.04216 3.86951 7.95044C3.08932 7.91893 2.32741 7.69896 1.64574 7.30843V7.37056C1.64574 9.82322 3.33592 11.8558 5.58853 12.3232C5.16558 12.4359 4.73048 12.4936 4.29349 12.4948C3.97334 12.4948 3.67049 12.4623 3.36476 12.4179C3.98776 14.4179 5.80197 15.8706 7.96228 15.9179C6.2721 17.2759 4.15505 18.0747 1.85629 18.0747C1.44384 18.0747 1.06311 18.0599 0.667969 18.0126C2.84848 19.4475 5.43566 20.2759 8.22187 20.2759C17.2669 20.2759 22.2163 12.5895 22.2163 5.9179C22.2163 5.69897 22.2163 5.48003 22.2019 5.2611C23.1595 4.54216 23.9988 3.65163 24.668 2.65163Z" fill="#1D1B19"/>
</svg>
